<svg id="SvgjsSvg1300" width="1269" height="775" xmlns="http://www.w3.org/2000/svg" version="1.1" xmlns:xlink="http://www.w3.org/1999/xlink" xmlns:svgjs="http://svgjs.com/svgjs"><defs id="SvgjsDefs1301"><marker id="SvgjsMarker1312" markerWidth="14" markerHeight="10" refX="10" refY="5" viewBox="0 0 14 10" orient="auto" markerUnits="userSpaceOnUse" stroke-dasharray="0,0"><path id="SvgjsPath1313" d="M0,0 L14,5 L0,10 L0,0" fill="#323232" stroke="#323232" stroke-width="1"></path></marker><marker id="SvgjsMarker1340" markerWidth="14" markerHeight="10" refX="10" refY="5" viewBox="0 0 14 10" orient="auto" markerUnits="userSpaceOnUse" stroke-dasharray="0,0"><path id="SvgjsPath1341" d="M0,0 L14,5 L0,10 L0,0" fill="#323232" stroke="#323232" stroke-width="1"></path></marker><marker id="SvgjsMarker1344" markerWidth="14" markerHeight="10" refX="10" refY="5" viewBox="0 0 14 10" orient="auto" markerUnits="userSpaceOnUse" stroke-dasharray="0,0"><path id="SvgjsPath1345" d="M0,0 L14,5 L0,10 L0,0" fill="#323232" stroke="#323232" stroke-width="1"></path></marker><marker id="SvgjsMarker1354" markerWidth="14" markerHeight="10" refX="10" refY="5" viewBox="0 0 14 10" orient="auto" markerUnits="userSpaceOnUse" stroke-dasharray="0,0"><path id="SvgjsPath1355" d="M0,0 L14,5 L0,10 L0,0" fill="#323232" stroke="#323232" stroke-width="1"></path></marker><marker id="SvgjsMarker1364" markerWidth="14" markerHeight="10" refX="10" refY="5" viewBox="0 0 14 10" orient="auto" markerUnits="userSpaceOnUse" stroke-dasharray="0,0"><path id="SvgjsPath1365" d="M0,0 L14,5 L0,10 L0,0" fill="#323232" stroke="#323232" stroke-width="1"></path></marker><marker id="SvgjsMarker1374" markerWidth="14" markerHeight="10" refX="10" refY="5" viewBox="0 0 14 10" orient="auto" markerUnits="userSpaceOnUse" stroke-dasharray="0,0"><path id="SvgjsPath1375" d="M0,0 L14,5 L0,10 L0,0" fill="#323232" stroke="#323232" stroke-width="1"></path></marker><marker id="SvgjsMarker1398" markerWidth="14" markerHeight="10" refX="10" refY="5" viewBox="0 0 14 10" orient="auto" markerUnits="userSpaceOnUse" stroke-dasharray="0,0"><path id="SvgjsPath1399" d="M0,0 L14,5 L0,10 L0,0" fill="#323232" stroke="#323232" stroke-width="1"></path></marker><marker id="SvgjsMarker1402" markerWidth="14" markerHeight="10" refX="10" refY="5" viewBox="0 0 14 10" orient="auto" markerUnits="userSpaceOnUse" stroke-dasharray="0,0"><path id="SvgjsPath1403" d="M0,0 L14,5 L0,10 L0,0" fill="#323232" stroke="#323232" stroke-width="1"></path></marker><marker id="SvgjsMarker1412" markerWidth="14" markerHeight="10" refX="10" refY="5" viewBox="0 0 14 10" orient="auto" markerUnits="userSpaceOnUse" stroke-dasharray="0,0"><path id="SvgjsPath1413" d="M0,0 L14,5 L0,10 L0,0" fill="#323232" stroke="#323232" stroke-width="1"></path></marker><marker id="SvgjsMarker1422" markerWidth="14" markerHeight="10" refX="10" refY="5" viewBox="0 0 14 10" orient="auto" markerUnits="userSpaceOnUse" stroke-dasharray="0,0"><path id="SvgjsPath1423" d="M0,0 L14,5 L0,10 L0,0" fill="#323232" stroke="#323232" stroke-width="1"></path></marker><marker id="SvgjsMarker1432" markerWidth="14" markerHeight="10" refX="10" refY="5" viewBox="0 0 14 10" orient="auto" markerUnits="userSpaceOnUse" stroke-dasharray="0,0"><path id="SvgjsPath1433" d="M0,0 L14,5 L0,10 L0,0" fill="#323232" stroke="#323232" stroke-width="1"></path></marker><marker id="SvgjsMarker1476" markerWidth="14" markerHeight="10" refX="10" refY="5" viewBox="0 0 14 10" orient="auto" markerUnits="userSpaceOnUse" stroke-dasharray="0,0"><path id="SvgjsPath1477" d="M0,0 L14,5 L0,10 L0,0" fill="#323232" stroke="#323232" stroke-width="1"></path></marker><marker id="SvgjsMarker1480" markerWidth="14" markerHeight="10" refX="10" refY="5" viewBox="0 0 14 10" orient="auto" markerUnits="userSpaceOnUse" stroke-dasharray="0,0"><path id="SvgjsPath1481" d="M0,0 L14,5 L0,10 L0,0" fill="#323232" stroke="#323232" stroke-width="1"></path></marker><marker id="SvgjsMarker1490" markerWidth="14" markerHeight="10" refX="10" refY="5" viewBox="0 0 14 10" orient="auto" markerUnits="userSpaceOnUse" stroke-dasharray="0,0"><path id="SvgjsPath1491" d="M0,0 L14,5 L0,10 L0,0" fill="#323232" stroke="#323232" stroke-width="1"></path></marker><marker id="SvgjsMarker1500" markerWidth="14" markerHeight="10" refX="10" refY="5" viewBox="0 0 14 10" orient="auto" markerUnits="userSpaceOnUse" stroke-dasharray="0,0"><path id="SvgjsPath1501" d="M0,0 L14,5 L0,10 L0,0" fill="#323232" stroke="#323232" stroke-width="1"></path></marker><marker id="SvgjsMarker1510" markerWidth="14" markerHeight="10" refX="10" refY="5" viewBox="0 0 14 10" orient="auto" markerUnits="userSpaceOnUse" stroke-dasharray="0,0"><path id="SvgjsPath1511" d="M0,0 L14,5 L0,10 L0,0" fill="#323232" stroke="#323232" stroke-width="1"></path></marker><marker id="SvgjsMarker1530" markerWidth="14" markerHeight="10" refX="10" refY="5" viewBox="0 0 14 10" orient="auto" markerUnits="userSpaceOnUse" stroke-dasharray="0,0"><path id="SvgjsPath1531" d="M0,0 L14,5 L0,10 L0,0" fill="#323232" stroke="#323232" stroke-width="1"></path></marker><marker id="SvgjsMarker1534" markerWidth="14" markerHeight="10" refX="10" refY="5" viewBox="0 0 14 10" orient="auto" markerUnits="userSpaceOnUse" stroke-dasharray="0,0"><path id="SvgjsPath1535" d="M0,0 L14,5 L0,10 L0,0" fill="#323232" stroke="#323232" stroke-width="1"></path></marker><marker id="SvgjsMarker1544" markerWidth="14" markerHeight="10" refX="10" refY="5" viewBox="0 0 14 10" orient="auto" markerUnits="userSpaceOnUse" stroke-dasharray="0,0"><path id="SvgjsPath1545" d="M0,0 L14,5 L0,10 L0,0" fill="#323232" stroke="#323232" stroke-width="1"></path></marker><marker id="SvgjsMarker1554" markerWidth="14" markerHeight="10" refX="10" refY="5" viewBox="0 0 14 10" orient="auto" markerUnits="userSpaceOnUse" stroke-dasharray="0,0"><path id="SvgjsPath1555" d="M0,0 L14,5 L0,10 L0,0" fill="#323232" stroke="#323232" stroke-width="1"></path></marker><marker id="SvgjsMarker1564" markerWidth="14" markerHeight="10" refX="10" refY="5" viewBox="0 0 14 10" orient="auto" markerUnits="userSpaceOnUse" stroke-dasharray="0,0"><path id="SvgjsPath1565" d="M0,0 L14,5 L0,10 L0,0" fill="#323232" stroke="#323232" stroke-width="1"></path></marker><marker id="SvgjsMarker1578" markerWidth="14" markerHeight="10" refX="10" refY="5" viewBox="0 0 14 10" orient="auto" markerUnits="userSpaceOnUse" stroke-dasharray="0,0"><path id="SvgjsPath1579" d="M0,0 L14,5 L0,10 L0,0" fill="#323232" stroke="#323232" stroke-width="1"></path></marker></defs><g id="SvgjsG1302" transform="translate(766,322.75)"><path id="SvgjsPath1303" d="M 0 4Q 0 0 4 0L 474 0Q 478 0 478 4L 478 327Q 478 331 474 331L 4 331Q 0 331 0 327Z" stroke-dasharray="10,6" stroke="rgba(211,47,47,1)" stroke-width="2" fill-opacity="1" fill="#ffffff"></path><g id="SvgjsG1304"><text id="SvgjsText1305" font-family="微软雅黑" text-anchor="middle" font-size="13px" width="458px" fill="#323232" font-weight="400" align="middle" lineHeight="125%" anchor="middle" family="微软雅黑" size="13px" weight="400" font-style="" opacity="1" y="154.875" transform="rotate(0)"></text></g></g><g id="SvgjsG1306" transform="translate(79,328)"><path id="SvgjsPath1307" d="M 0 4Q 0 0 4 0L 467 0Q 471 0 471 4L 471 159.5Q 471 163.5 467 163.5L 4 163.5Q 0 163.5 0 159.5Z" stroke-dasharray="10,6" stroke="rgba(211,47,47,1)" stroke-width="2" fill-opacity="1" fill="#ffffff"></path><g id="SvgjsG1308"><text id="SvgjsText1309" font-family="微软雅黑" text-anchor="middle" font-size="13px" width="451px" fill="#323232" font-weight="400" align="middle" lineHeight="125%" anchor="middle" family="微软雅黑" size="13px" weight="400" font-style="" opacity="1" y="71.125" transform="rotate(0)"></text></g></g><g id="SvgjsG1310"><path id="SvgjsPath1311" d="M25 31L25 390.5L25 390.5L25 750" stroke="#323232" stroke-width="2" fill="none" marker-end="url(#SvgjsMarker1312)"></path><rect id="SvgjsRect1314" width="13" height="48" x="18.5" y="366.5" fill="#ffffff"></rect><text id="SvgjsText1315" font-family="微软雅黑" text-anchor="middle" font-size="13px" width="13px" fill="#323232" font-weight="400" align="top" lineHeight="16px" anchor="middle" family="微软雅黑" size="13px" weight="400" font-style="" opacity="1" y="363.875" transform="rotate(0)"><tspan id="SvgjsTspan1316" dy="16" x="25"><tspan id="SvgjsTspan1317" style="text-decoration:;">时</tspan></tspan><tspan id="SvgjsTspan1318" dy="16" x="25"><tspan id="SvgjsTspan1319" style="text-decoration:;">间</tspan></tspan><tspan id="SvgjsTspan1320" dy="16" x="25"><tspan id="SvgjsTspan1321" style="text-decoration:;">线</tspan></tspan></text></g><g id="SvgjsG1322" transform="translate(130,25)"><path id="SvgjsPath1323" d="M 0 0L 120 0L 120 40L 0 40Z" stroke="none" fill="none"></path><g id="SvgjsG1324"><text id="SvgjsText1325" font-family="微软雅黑" text-anchor="middle" font-size="13px" width="120px" fill="#323232" font-weight="400" align="middle" lineHeight="125%" anchor="middle" family="微软雅黑" size="13px" weight="400" font-style="" opacity="1" y="9.375" transform="rotate(0)"><tspan id="SvgjsTspan1326" dy="16" x="60"><tspan id="SvgjsTspan1327" style="text-decoration:;">事务A</tspan></tspan></text></g></g><g id="SvgjsG1328" transform="translate(143.5,78)"><path id="SvgjsPath1329" d="M 0 26C 0 -8.666666666666666 93 -8.666666666666666 93 26C 93 60.666666666666664 0 60.666666666666664 0 26Z" stroke="rgba(50,50,50,1)" stroke-width="2" fill-opacity="1" fill="#ffffff"></path><g id="SvgjsG1330"><text id="SvgjsText1331" font-family="微软雅黑" text-anchor="middle" font-size="13px" width="73px" fill="#323232" font-weight="400" align="middle" lineHeight="125%" anchor="middle" family="微软雅黑" size="13px" weight="400" font-style="" opacity="1" y="15.375" transform="rotate(0)"></text></g></g><g id="SvgjsG1332" transform="translate(104.5,179)"><path id="SvgjsPath1333" d="M 0 0L 171 0L 171 42L 0 42Z" stroke="rgba(50,50,50,1)" stroke-width="2" fill-opacity="1" fill="#ffffff"></path><g id="SvgjsG1334"><text id="SvgjsText1335" font-family="微软雅黑" text-anchor="middle" font-size="13px" width="151px" fill="#323232" font-weight="400" align="middle" lineHeight="125%" anchor="middle" family="微软雅黑" size="13px" weight="400" font-style="" opacity="1" y="10.375" transform="rotate(0)"><tspan id="SvgjsTspan1336" dy="16" x="85.5"><tspan id="SvgjsTspan1337" style="text-decoration:;">数据修改请求</tspan></tspan></text></g></g><g id="SvgjsG1338"><path id="SvgjsPath1339" d="M190 131L190 154.5L190 154.5L190 175.39999999999998" stroke="#323232" stroke-width="2" fill="none" marker-end="url(#SvgjsMarker1340)"></path></g><g id="SvgjsG1342"><path id="SvgjsPath1343" d="M190 222L190 241.5L190 241.5L190 258.4" stroke="#323232" stroke-width="2" fill="none" marker-end="url(#SvgjsMarker1344)"></path></g><g id="SvgjsG1346" transform="translate(104.5,262)"><path id="SvgjsPath1347" d="M 0 0L 171 0L 171 42L 0 42Z" stroke="rgba(50,50,50,1)" stroke-width="2" fill-opacity="1" fill="#ffffff"></path><g id="SvgjsG1348"><text id="SvgjsText1349" font-family="微软雅黑" text-anchor="middle" font-size="13px" width="151px" fill="#323232" font-weight="400" align="middle" lineHeight="125%" anchor="middle" family="微软雅黑" size="13px" weight="400" font-style="" opacity="1" y="10.375" transform="rotate(0)"><tspan id="SvgjsTspan1350" dy="16" x="85.5"><tspan id="SvgjsTspan1351" style="text-decoration:;">删除缓存</tspan></tspan></text></g></g><g id="SvgjsG1352"><path id="SvgjsPath1353" d="M190 305L190 325.5L190 325.5L190 342.4" stroke="#323232" stroke-width="2" fill="none" marker-end="url(#SvgjsMarker1354)"></path></g><g id="SvgjsG1356" transform="translate(104.5,346)"><path id="SvgjsPath1357" d="M 0 0L 171 0L 171 42L 0 42Z" stroke="rgba(50,50,50,1)" stroke-width="2" fill-opacity="1" fill="#ffffff"></path><g id="SvgjsG1358"><text id="SvgjsText1359" font-family="微软雅黑" text-anchor="middle" font-size="13px" width="151px" fill="#323232" font-weight="400" align="middle" lineHeight="125%" anchor="middle" family="微软雅黑" size="13px" weight="400" font-style="" opacity="1" y="10.375" transform="rotate(0)"><tspan id="SvgjsTspan1360" dy="16" x="85.5"><tspan id="SvgjsTspan1361" style="text-decoration:;">修改数据库</tspan></tspan></text></g></g><g id="SvgjsG1362"><path id="SvgjsPath1363" d="M190 387L190 407.5L190 407.5L190 424.4" stroke="#323232" stroke-width="2" fill="none" marker-end="url(#SvgjsMarker1364)"></path></g><g id="SvgjsG1366" transform="translate(104.5,428)"><path id="SvgjsPath1367" d="M 0 0L 171 0L 171 42L 0 42Z" stroke="rgba(50,50,50,1)" stroke-width="2" fill-opacity="1" fill="#ffffff"></path><g id="SvgjsG1368"><text id="SvgjsText1369" font-family="微软雅黑" text-anchor="middle" font-size="13px" width="151px" fill="#323232" font-weight="400" align="middle" lineHeight="125%" anchor="middle" family="微软雅黑" size="13px" weight="400" font-style="" opacity="1" y="10.375" transform="rotate(0)"><tspan id="SvgjsTspan1370" dy="16" x="85.5"><tspan id="SvgjsTspan1371" style="text-decoration:;">删除缓存</tspan></tspan></text></g></g><g id="SvgjsG1372"><path id="SvgjsPath1373" d="M190 471L190 484.5L190 484.5L190 499" stroke="#323232" stroke-width="2" fill="none" marker-end="url(#SvgjsMarker1374)"></path></g><g id="SvgjsG1376" transform="translate(143.5,501)"><path id="SvgjsPath1377" d="M 0 26C 0 -8.666666666666666 93 -8.666666666666666 93 26C 93 60.666666666666664 0 60.666666666666664 0 26Z" stroke="rgba(50,50,50,1)" stroke-width="2" fill-opacity="1" fill="#ffffff"></path><g id="SvgjsG1378"><text id="SvgjsText1379" font-family="微软雅黑" text-anchor="middle" font-size="13px" width="73px" fill="#323232" font-weight="400" align="middle" lineHeight="125%" anchor="middle" family="微软雅黑" size="13px" weight="400" font-style="" opacity="1" y="15.375" transform="rotate(0)"></text></g></g><g id="SvgjsG1380" transform="translate(365,25)"><path id="SvgjsPath1381" d="M 0 0L 120 0L 120 40L 0 40Z" stroke="none" fill="none"></path><g id="SvgjsG1382"><text id="SvgjsText1383" font-family="微软雅黑" text-anchor="middle" font-size="13px" width="120px" fill="#323232" font-weight="400" align="middle" lineHeight="125%" anchor="middle" family="微软雅黑" size="13px" weight="400" font-style="" opacity="1" y="9.375" transform="rotate(0)"><tspan id="SvgjsTspan1384" dy="16" x="60"><tspan id="SvgjsTspan1385" style="text-decoration:;">事务B</tspan></tspan></text></g></g><g id="SvgjsG1386" transform="translate(378.5,78)"><path id="SvgjsPath1387" d="M 0 26C 0 -8.666666666666666 93 -8.666666666666666 93 26C 93 60.666666666666664 0 60.666666666666664 0 26Z" stroke="rgba(50,50,50,1)" stroke-width="2" fill-opacity="1" fill="#ffffff"></path><g id="SvgjsG1388"><text id="SvgjsText1389" font-family="微软雅黑" text-anchor="middle" font-size="13px" width="73px" fill="#323232" font-weight="400" align="middle" lineHeight="125%" anchor="middle" family="微软雅黑" size="13px" weight="400" font-style="" opacity="1" y="15.375" transform="rotate(0)"></text></g></g><g id="SvgjsG1390" transform="translate(339.5,179)"><path id="SvgjsPath1391" d="M 0 0L 171 0L 171 42L 0 42Z" stroke="rgba(50,50,50,1)" stroke-width="2" fill-opacity="1" fill="#ffffff"></path><g id="SvgjsG1392"><text id="SvgjsText1393" font-family="微软雅黑" text-anchor="middle" font-size="13px" width="151px" fill="#323232" font-weight="400" align="middle" lineHeight="125%" anchor="middle" family="微软雅黑" size="13px" weight="400" font-style="" opacity="1" y="10.375" transform="rotate(0)"><tspan id="SvgjsTspan1394" dy="16" x="85.5"><tspan id="SvgjsTspan1395" style="text-decoration:;">读取数据</tspan></tspan></text></g></g><g id="SvgjsG1396"><path id="SvgjsPath1397" d="M425 131L425 154.5L425 154.5L425 175.39999999999998" stroke="#323232" stroke-width="2" fill="none" marker-end="url(#SvgjsMarker1398)"></path></g><g id="SvgjsG1400"><path id="SvgjsPath1401" d="M425 222L425 244.75L425 244.75L425 264.9" stroke="#323232" stroke-width="2" fill="none" marker-end="url(#SvgjsMarker1402)"></path></g><g id="SvgjsG1404" transform="translate(339.5,268.5)"><path id="SvgjsPath1405" d="M 0 0L 171 0L 171 42L 0 42Z" stroke="rgba(50,50,50,1)" stroke-width="2" fill-opacity="1" fill="#ffffff"></path><g id="SvgjsG1406"><text id="SvgjsText1407" font-family="微软雅黑" text-anchor="middle" font-size="13px" width="151px" fill="#323232" font-weight="400" align="middle" lineHeight="125%" anchor="middle" family="微软雅黑" size="13px" weight="400" font-style="" opacity="1" y="10.375" transform="rotate(0)"><tspan id="SvgjsTspan1408" dy="16" x="85.5"><tspan id="SvgjsTspan1409" style="text-decoration:;">缓存失效</tspan></tspan></text></g></g><g id="SvgjsG1410"><path id="SvgjsPath1411" d="M425 311.5L425 322.75L425 322.75L425 331.4" stroke="#323232" stroke-width="2" fill="none" marker-end="url(#SvgjsMarker1412)"></path></g><g id="SvgjsG1414" transform="translate(339.5,335)"><path id="SvgjsPath1415" d="M 0 0L 171 0L 171 42L 0 42Z" stroke="rgba(50,50,50,1)" stroke-width="2" fill-opacity="1" fill="#ffffff"></path><g id="SvgjsG1416"><text id="SvgjsText1417" font-family="微软雅黑" text-anchor="middle" font-size="13px" width="151px" fill="#323232" font-weight="400" align="middle" lineHeight="125%" anchor="middle" family="微软雅黑" size="13px" weight="400" font-style="" opacity="1" y="10.375" transform="rotate(0)"><tspan id="SvgjsTspan1418" dy="16" x="85.5"><tspan id="SvgjsTspan1419" style="text-decoration:;">数据库加载</tspan></tspan></text></g></g><g id="SvgjsG1420"><path id="SvgjsPath1421" d="M425 378L425 408.5L425 408.5L425 436.4" stroke="#323232" stroke-width="2" fill="none" marker-end="url(#SvgjsMarker1422)"></path></g><g id="SvgjsG1424" transform="translate(339.5,440)"><path id="SvgjsPath1425" d="M 0 0L 171 0L 171 42L 0 42Z" stroke="rgba(50,50,50,1)" stroke-width="2" fill-opacity="1" fill="#ffffff"></path><g id="SvgjsG1426"><text id="SvgjsText1427" font-family="微软雅黑" text-anchor="middle" font-size="13px" width="151px" fill="#b71c1c" font-weight="700" align="middle" lineHeight="125%" anchor="middle" family="微软雅黑" size="13px" weight="700" font-style="" opacity="1" y="10.375" transform="rotate(0)"><tspan id="SvgjsTspan1428" dy="16" x="85.5"><tspan id="SvgjsTspan1429" style="text-decoration:;">添加缓存（缓存脏写）</tspan></tspan></text></g></g><g id="SvgjsG1430"><path id="SvgjsPath1431" d="M425 483L425 493.5L425 493.5L425 505" stroke="#323232" stroke-width="2" fill="none" marker-end="url(#SvgjsMarker1432)"></path></g><g id="SvgjsG1434" transform="translate(378.5,509)"><path id="SvgjsPath1435" d="M 0 26C 0 -8.666666666666666 93 -8.666666666666666 93 26C 93 60.666666666666664 0 60.666666666666664 0 26Z" stroke="rgba(50,50,50,1)" stroke-width="2" fill-opacity="1" fill="#ffffff"></path><g id="SvgjsG1436"><text id="SvgjsText1437" font-family="微软雅黑" text-anchor="middle" font-size="13px" width="73px" fill="#323232" font-weight="400" align="middle" lineHeight="125%" anchor="middle" family="微软雅黑" size="13px" weight="400" font-style="" opacity="1" y="15.375" transform="rotate(0)"></text></g></g><g id="SvgjsG1438" transform="translate(521.5,371)"><path id="SvgjsPath1439" d="M 0 0L 79.5 0L 95.5 16L 95.5 90L 0 90L 0 0Z" stroke="none" fill-opacity="1" fill="#ffffaa"></path><path id="SvgjsPath1440" d="M 79.5 0L 79.5 16L 95.5 16Z" stroke="none" fill-opacity="1" fill="#cdcdcd"></path><path id="SvgjsPath1441" d="M 0 0L 79.5 0L 95.5 16L 95.5 90L 0 90L 0 0Z" stroke="none" fill="none"></path><g id="SvgjsG1442"><text id="SvgjsText1443" font-family="微软雅黑" text-anchor="middle" font-size="13px" width="76px" fill="#323232" font-weight="400" align="middle" lineHeight="125%" anchor="middle" family="微软雅黑" size="13px" weight="400" font-style="" opacity="1" y="9.875" transform="rotate(0)"><tspan id="SvgjsTspan1444" dy="16" x="48"><tspan id="SvgjsTspan1445" style="text-decoration:;">并发场景下</tspan></tspan><tspan id="SvgjsTspan1446" dy="16" x="48"><tspan id="SvgjsTspan1447" style="text-decoration:;">的缓存删除</tspan></tspan><tspan id="SvgjsTspan1448" dy="16" x="48"><tspan id="SvgjsTspan1449" style="text-decoration:;">是会造成缓</tspan></tspan><tspan id="SvgjsTspan1450" dy="16" x="48"><tspan id="SvgjsTspan1451" style="text-decoration:;">存脏写的</tspan></tspan></text></g></g><g id="SvgjsG1452" transform="translate(632,268.5)"><path id="SvgjsPath1453" d="M 0 19.635L 73.25 19.635L 73.25 0L 103 29.75L 73.25 59.5L 73.25 39.865L 0 39.865L 0 19.635Z" stroke="rgba(50,50,50,1)" stroke-width="2" fill-opacity="1" fill="#ffffff"></path><g id="SvgjsG1454"><text id="SvgjsText1455" font-family="微软雅黑" text-anchor="middle" font-size="13px" width="103px" fill="#323232" font-weight="400" align="middle" lineHeight="125%" anchor="middle" family="微软雅黑" size="13px" weight="400" font-style="" opacity="1" y="19.125" transform="rotate(0)"><tspan id="SvgjsTspan1456" dy="16" x="51.5"><tspan id="SvgjsTspan1457" style="text-decoration:;">延迟解决脏写</tspan></tspan></text></g></g><g id="SvgjsG1458" transform="translate(830,25)"><path id="SvgjsPath1459" d="M 0 0L 120 0L 120 40L 0 40Z" stroke="none" fill="none"></path><g id="SvgjsG1460"><text id="SvgjsText1461" font-family="微软雅黑" text-anchor="middle" font-size="13px" width="120px" fill="#323232" font-weight="400" align="middle" lineHeight="125%" anchor="middle" family="微软雅黑" size="13px" weight="400" font-style="" opacity="1" y="9.375" transform="rotate(0)"><tspan id="SvgjsTspan1462" dy="16" x="60"><tspan id="SvgjsTspan1463" style="text-decoration:;">事务A</tspan></tspan></text></g></g><g id="SvgjsG1464" transform="translate(843.5,78)"><path id="SvgjsPath1465" d="M 0 26C 0 -8.666666666666666 93 -8.666666666666666 93 26C 93 60.666666666666664 0 60.666666666666664 0 26Z" stroke="rgba(50,50,50,1)" stroke-width="2" fill-opacity="1" fill="#ffffff"></path><g id="SvgjsG1466"><text id="SvgjsText1467" font-family="微软雅黑" text-anchor="middle" font-size="13px" width="73px" fill="#323232" font-weight="400" align="middle" lineHeight="125%" anchor="middle" family="微软雅黑" size="13px" weight="400" font-style="" opacity="1" y="15.375" transform="rotate(0)"></text></g></g><g id="SvgjsG1468" transform="translate(804.5,179)"><path id="SvgjsPath1469" d="M 0 0L 171 0L 171 42L 0 42Z" stroke="rgba(50,50,50,1)" stroke-width="2" fill-opacity="1" fill="#ffffff"></path><g id="SvgjsG1470"><text id="SvgjsText1471" font-family="微软雅黑" text-anchor="middle" font-size="13px" width="151px" fill="#323232" font-weight="400" align="middle" lineHeight="125%" anchor="middle" family="微软雅黑" size="13px" weight="400" font-style="" opacity="1" y="10.375" transform="rotate(0)"><tspan id="SvgjsTspan1472" dy="16" x="85.5"><tspan id="SvgjsTspan1473" style="text-decoration:;">数据修改请求</tspan></tspan></text></g></g><g id="SvgjsG1474"><path id="SvgjsPath1475" d="M890 131L890 154.5L890 154.5L890 175.39999999999998" stroke="#323232" stroke-width="2" fill="none" marker-end="url(#SvgjsMarker1476)"></path></g><g id="SvgjsG1478"><path id="SvgjsPath1479" d="M890 222L890 241.5L890 241.5L890 258.4" stroke="#323232" stroke-width="2" fill="none" marker-end="url(#SvgjsMarker1480)"></path></g><g id="SvgjsG1482" transform="translate(804.5,262)"><path id="SvgjsPath1483" d="M 0 0L 171 0L 171 42L 0 42Z" stroke="rgba(50,50,50,1)" stroke-width="2" fill-opacity="1" fill="#ffffff"></path><g id="SvgjsG1484"><text id="SvgjsText1485" font-family="微软雅黑" text-anchor="middle" font-size="13px" width="151px" fill="#323232" font-weight="400" align="middle" lineHeight="125%" anchor="middle" family="微软雅黑" size="13px" weight="400" font-style="" opacity="1" y="10.375" transform="rotate(0)"><tspan id="SvgjsTspan1486" dy="16" x="85.5"><tspan id="SvgjsTspan1487" style="text-decoration:;">删除缓存</tspan></tspan></text></g></g><g id="SvgjsG1488"><path id="SvgjsPath1489" d="M890 305L890 325.5L890 325.5L890 342.4" stroke="#323232" stroke-width="2" fill="none" marker-end="url(#SvgjsMarker1490)"></path></g><g id="SvgjsG1492" transform="translate(804.5,346)"><path id="SvgjsPath1493" d="M 0 0L 171 0L 171 42L 0 42Z" stroke="rgba(50,50,50,1)" stroke-width="2" fill-opacity="1" fill="#ffffff"></path><g id="SvgjsG1494"><text id="SvgjsText1495" font-family="微软雅黑" text-anchor="middle" font-size="13px" width="151px" fill="#323232" font-weight="400" align="middle" lineHeight="125%" anchor="middle" family="微软雅黑" size="13px" weight="400" font-style="" opacity="1" y="10.375" transform="rotate(0)"><tspan id="SvgjsTspan1496" dy="16" x="85.5"><tspan id="SvgjsTspan1497" style="text-decoration:;">修改数据库</tspan></tspan></text></g></g><g id="SvgjsG1498"><path id="SvgjsPath1499" d="M890 387L890 399L890 399L890 407.4" stroke="#323232" stroke-width="2" fill="none" marker-end="url(#SvgjsMarker1500)"></path></g><g id="SvgjsG1502" transform="translate(804.5,411)"><path id="SvgjsPath1503" d="M 0 0L 171 0L 171 42L 0 42Z" stroke="rgba(50,50,50,1)" stroke-width="2" fill-opacity="1" fill="#ffffff"></path><g id="SvgjsG1504"><text id="SvgjsText1505" font-family="微软雅黑" text-anchor="middle" font-size="13px" width="151px" fill="#323232" font-weight="400" align="middle" lineHeight="125%" anchor="middle" family="微软雅黑" size="13px" weight="400" font-style="" opacity="1" y="10.375" transform="rotate(0)"><tspan id="SvgjsTspan1506" dy="16" x="85.5"><tspan id="SvgjsTspan1507" style="text-decoration:;">休眠延迟</tspan></tspan></text></g></g><g id="SvgjsG1508"><path id="SvgjsPath1509" d="M890 454L890 524.5L890 524.5L890 596" stroke="#323232" stroke-width="2" fill="none" marker-end="url(#SvgjsMarker1510)"></path></g><g id="SvgjsG1512" transform="translate(1065,25)"><path id="SvgjsPath1513" d="M 0 0L 120 0L 120 40L 0 40Z" stroke="none" fill="none"></path><g id="SvgjsG1514"><text id="SvgjsText1515" font-family="微软雅黑" text-anchor="middle" font-size="13px" width="120px" fill="#323232" font-weight="400" align="middle" lineHeight="125%" anchor="middle" family="微软雅黑" size="13px" weight="400" font-style="" opacity="1" y="9.375" transform="rotate(0)"><tspan id="SvgjsTspan1516" dy="16" x="60"><tspan id="SvgjsTspan1517" style="text-decoration:;">事务B</tspan></tspan></text></g></g><g id="SvgjsG1518" transform="translate(1078.5,78)"><path id="SvgjsPath1519" d="M 0 26C 0 -8.666666666666666 93 -8.666666666666666 93 26C 93 60.666666666666664 0 60.666666666666664 0 26Z" stroke="rgba(50,50,50,1)" stroke-width="2" fill-opacity="1" fill="#ffffff"></path><g id="SvgjsG1520"><text id="SvgjsText1521" font-family="微软雅黑" text-anchor="middle" font-size="13px" width="73px" fill="#323232" font-weight="400" align="middle" lineHeight="125%" anchor="middle" family="微软雅黑" size="13px" weight="400" font-style="" opacity="1" y="15.375" transform="rotate(0)"></text></g></g><g id="SvgjsG1522" transform="translate(1039.5,179)"><path id="SvgjsPath1523" d="M 0 0L 171 0L 171 42L 0 42Z" stroke="rgba(50,50,50,1)" stroke-width="2" fill-opacity="1" fill="#ffffff"></path><g id="SvgjsG1524"><text id="SvgjsText1525" font-family="微软雅黑" text-anchor="middle" font-size="13px" width="151px" fill="#323232" font-weight="400" align="middle" lineHeight="125%" anchor="middle" family="微软雅黑" size="13px" weight="400" font-style="" opacity="1" y="10.375" transform="rotate(0)"><tspan id="SvgjsTspan1526" dy="16" x="85.5"><tspan id="SvgjsTspan1527" style="text-decoration:;">读取数据</tspan></tspan></text></g></g><g id="SvgjsG1528"><path id="SvgjsPath1529" d="M1125 131L1125 154.5L1125 154.5L1125 175.39999999999998" stroke="#323232" stroke-width="2" fill="none" marker-end="url(#SvgjsMarker1530)"></path></g><g id="SvgjsG1532"><path id="SvgjsPath1533" d="M1125 222L1125 244.75L1125 244.75L1125 264.9" stroke="#323232" stroke-width="2" fill="none" marker-end="url(#SvgjsMarker1534)"></path></g><g id="SvgjsG1536" transform="translate(1039.5,268.5)"><path id="SvgjsPath1537" d="M 0 0L 171 0L 171 42L 0 42Z" stroke="rgba(50,50,50,1)" stroke-width="2" fill-opacity="1" fill="#ffffff"></path><g id="SvgjsG1538"><text id="SvgjsText1539" font-family="微软雅黑" text-anchor="middle" font-size="13px" width="151px" fill="#323232" font-weight="400" align="middle" lineHeight="125%" anchor="middle" family="微软雅黑" size="13px" weight="400" font-style="" opacity="1" y="10.375" transform="rotate(0)"><tspan id="SvgjsTspan1540" dy="16" x="85.5"><tspan id="SvgjsTspan1541" style="text-decoration:;">缓存失效</tspan></tspan></text></g></g><g id="SvgjsG1542"><path id="SvgjsPath1543" d="M1125 311.5L1125 322.75L1125 322.75L1125 331.4" stroke="#323232" stroke-width="2" fill="none" marker-end="url(#SvgjsMarker1544)"></path></g><g id="SvgjsG1546" transform="translate(1039.5,335)"><path id="SvgjsPath1547" d="M 0 0L 171 0L 171 42L 0 42Z" stroke="rgba(50,50,50,1)" stroke-width="2" fill-opacity="1" fill="#ffffff"></path><g id="SvgjsG1548"><text id="SvgjsText1549" font-family="微软雅黑" text-anchor="middle" font-size="13px" width="151px" fill="#323232" font-weight="400" align="middle" lineHeight="125%" anchor="middle" family="微软雅黑" size="13px" weight="400" font-style="" opacity="1" y="10.375" transform="rotate(0)"><tspan id="SvgjsTspan1550" dy="16" x="85.5"><tspan id="SvgjsTspan1551" style="text-decoration:;">数据库加载</tspan></tspan></text></g></g><g id="SvgjsG1552"><path id="SvgjsPath1553" d="M1125 378L1125 408.5L1125 408.5L1125 436.4" stroke="#323232" stroke-width="2" fill="none" marker-end="url(#SvgjsMarker1554)"></path></g><g id="SvgjsG1556" transform="translate(1039.5,440)"><path id="SvgjsPath1557" d="M 0 0L 171 0L 171 42L 0 42Z" stroke="rgba(50,50,50,1)" stroke-width="2" fill-opacity="1" fill="#ffffff"></path><g id="SvgjsG1558"><text id="SvgjsText1559" font-family="微软雅黑" text-anchor="middle" font-size="13px" width="151px" fill="#b71c1c" font-weight="700" align="middle" lineHeight="125%" anchor="middle" family="微软雅黑" size="13px" weight="700" font-style="" opacity="1" y="10.375" transform="rotate(0)"><tspan id="SvgjsTspan1560" dy="16" x="85.5"><tspan id="SvgjsTspan1561" style="text-decoration:;">添加缓存（缓存脏写）</tspan></tspan></text></g></g><g id="SvgjsG1562"><path id="SvgjsPath1563" d="M1125 483L1125 493.5L1125 493.5L1125 505" stroke="#323232" stroke-width="2" fill="none" marker-end="url(#SvgjsMarker1564)"></path></g><g id="SvgjsG1566" transform="translate(1078.5,509)"><path id="SvgjsPath1567" d="M 0 26C 0 -8.666666666666666 93 -8.666666666666666 93 26C 93 60.666666666666664 0 60.666666666666664 0 26Z" stroke="rgba(50,50,50,1)" stroke-width="2" fill-opacity="1" fill="#ffffff"></path><g id="SvgjsG1568"><text id="SvgjsText1569" font-family="微软雅黑" text-anchor="middle" font-size="13px" width="73px" fill="#323232" font-weight="400" align="middle" lineHeight="125%" anchor="middle" family="微软雅黑" size="13px" weight="400" font-style="" opacity="1" y="15.375" transform="rotate(0)"></text></g></g><g id="SvgjsG1570" transform="translate(804.5,598)"><path id="SvgjsPath1571" d="M 0 0L 171 0L 171 42L 0 42Z" stroke="rgba(50,50,50,1)" stroke-width="2" fill-opacity="1" fill="#ffffff"></path><g id="SvgjsG1572"><text id="SvgjsText1573" font-family="微软雅黑" text-anchor="middle" font-size="13px" width="151px" fill="#323232" font-weight="400" align="middle" lineHeight="125%" anchor="middle" family="微软雅黑" size="13px" weight="400" font-style="" opacity="1" y="10.375" transform="rotate(0)"><tspan id="SvgjsTspan1574" dy="16" x="85.5"><tspan id="SvgjsTspan1575" style="text-decoration:;">删除缓存</tspan></tspan></text></g></g><g id="SvgjsG1576"><path id="SvgjsPath1577" d="M890 639L890 650.5L890 650.5L890 662" stroke="#323232" stroke-width="2" fill="none" marker-end="url(#SvgjsMarker1578)"></path></g><g id="SvgjsG1580" transform="translate(843.5,666)"><path id="SvgjsPath1581" d="M 0 26C 0 -8.666666666666666 93 -8.666666666666666 93 26C 93 60.666666666666664 0 60.666666666666664 0 26Z" stroke="rgba(50,50,50,1)" stroke-width="2" fill-opacity="1" fill="#ffffff"></path><g id="SvgjsG1582"><text id="SvgjsText1583" font-family="微软雅黑" text-anchor="middle" font-size="13px" width="73px" fill="#323232" font-weight="400" align="middle" lineHeight="125%" anchor="middle" family="微软雅黑" size="13px" weight="400" font-style="" opacity="1" y="15.375" transform="rotate(0)"></text></g></g><g id="SvgjsG1584" transform="translate(600,590)"><path id="SvgjsPath1585" d="M 0 0L 176 0L 192 16L 192 68L 0 68L 0 0Z" stroke="none" fill-opacity="1" fill="#ffffaa"></path><path id="SvgjsPath1586" d="M 176 0L 176 16L 192 16Z" stroke="none" fill-opacity="1" fill="#cdcdcd"></path><path id="SvgjsPath1587" d="M 0 0L 176 0L 192 16L 192 68L 0 68L 0 0Z" stroke="none" fill="none"></path><g id="SvgjsG1588"><text id="SvgjsText1589" font-family="微软雅黑" text-anchor="middle" font-size="13px" width="172px" fill="#323232" font-weight="400" align="middle" lineHeight="125%" anchor="middle" family="微软雅黑" size="13px" weight="400" font-style="" opacity="1" y="14.875" transform="rotate(0)"><tspan id="SvgjsTspan1590" dy="16" x="96"><tspan id="SvgjsTspan1591" style="text-decoration:;">延迟删除脏写数据，由下个请</tspan></tspan><tspan id="SvgjsTspan1592" dy="16" x="96"><tspan id="SvgjsTspan1593" style="text-decoration:;">求重新写入缓存</tspan></tspan></text></g></g></svg>